<mxfile host="app.diagrams.net" modified="2022-03-16T22:39:49.646Z" agent="5.0 (Macintosh; Intel Mac OS X 10_15_7) AppleWebKit/605.1.15 (KHTML, like Gecko) Version/14.1.1 Safari/605.1.15" etag="ccTC06Y2l-sSyJsQDJqP" version="16.4.6" type="github">
  <diagram id="kgpKYQtTHZ0yAKxKKP6v" name="Page-1">
    <mxGraphModel dx="688" dy="471" grid="1" gridSize="10" guides="1" tooltips="1" connect="1" arrows="1" fold="1" page="1" pageScale="1" pageWidth="850" pageHeight="1100" math="0" shadow="0">
      <root>
        <mxCell id="0" />
        <mxCell id="1" parent="0" />
        <mxCell id="3nuBFxr9cyL0pnOWT2aG-1" value="Main" style="shape=umlLifeline;perimeter=lifelinePerimeter;container=1;collapsible=0;recursiveResize=0;rounded=0;shadow=0;strokeWidth=1;" parent="1" vertex="1">
          <mxGeometry x="120" y="80" width="110" height="540" as="geometry" />
        </mxCell>
        <mxCell id="3nuBFxr9cyL0pnOWT2aG-2" value="" style="points=[];perimeter=orthogonalPerimeter;rounded=0;shadow=0;strokeWidth=1;" parent="3nuBFxr9cyL0pnOWT2aG-1" vertex="1">
          <mxGeometry x="50" y="70" width="10" height="440" as="geometry" />
        </mxCell>
        <mxCell id="3nuBFxr9cyL0pnOWT2aG-3" value="Run program" style="verticalAlign=bottom;startArrow=oval;endArrow=block;startSize=8;shadow=0;strokeWidth=1;" parent="3nuBFxr9cyL0pnOWT2aG-1" target="3nuBFxr9cyL0pnOWT2aG-2" edge="1">
          <mxGeometry relative="1" as="geometry">
            <mxPoint x="-15" y="70" as="sourcePoint" />
          </mxGeometry>
        </mxCell>
        <mxCell id="3QzUX1BSIkMpHnEPLkSG-31" value="" style="html=1;points=[];perimeter=orthogonalPerimeter;" vertex="1" parent="3nuBFxr9cyL0pnOWT2aG-1">
          <mxGeometry x="55" y="290" width="10" height="20" as="geometry" />
        </mxCell>
        <mxCell id="3QzUX1BSIkMpHnEPLkSG-34" value="" style="html=1;points=[];perimeter=orthogonalPerimeter;" vertex="1" parent="3nuBFxr9cyL0pnOWT2aG-1">
          <mxGeometry x="55" y="361.54" width="10" height="18.46" as="geometry" />
        </mxCell>
        <mxCell id="3QzUX1BSIkMpHnEPLkSG-39" value="" style="html=1;points=[];perimeter=orthogonalPerimeter;" vertex="1" parent="3nuBFxr9cyL0pnOWT2aG-1">
          <mxGeometry x="55" y="400" width="10" height="18.46" as="geometry" />
        </mxCell>
        <mxCell id="3nuBFxr9cyL0pnOWT2aG-5" value="Input Manager" style="shape=umlLifeline;perimeter=lifelinePerimeter;container=1;collapsible=0;recursiveResize=0;rounded=0;shadow=0;strokeWidth=1;" parent="1" vertex="1">
          <mxGeometry x="260" y="80" width="100" height="540" as="geometry" />
        </mxCell>
        <mxCell id="3nuBFxr9cyL0pnOWT2aG-8" value="Initiate()" style="verticalAlign=bottom;endArrow=block;entryX=0;entryY=0;shadow=0;strokeWidth=1;" parent="1" source="3nuBFxr9cyL0pnOWT2aG-2" target="3nuBFxr9cyL0pnOWT2aG-6" edge="1">
          <mxGeometry relative="1" as="geometry">
            <mxPoint x="275" y="160" as="sourcePoint" />
          </mxGeometry>
        </mxCell>
        <mxCell id="3QzUX1BSIkMpHnEPLkSG-1" value="Screen Display" style="shape=umlLifeline;perimeter=lifelinePerimeter;container=1;collapsible=0;recursiveResize=0;rounded=0;shadow=0;strokeWidth=1;" vertex="1" parent="1">
          <mxGeometry x="390" y="80" width="110" height="540" as="geometry" />
        </mxCell>
        <mxCell id="3QzUX1BSIkMpHnEPLkSG-2" value="" style="points=[];perimeter=orthogonalPerimeter;rounded=0;shadow=0;strokeWidth=1;" vertex="1" parent="3QzUX1BSIkMpHnEPLkSG-1">
          <mxGeometry x="50" y="80" width="10" height="430" as="geometry" />
        </mxCell>
        <mxCell id="3nuBFxr9cyL0pnOWT2aG-4" value="" style="points=[];perimeter=orthogonalPerimeter;rounded=0;shadow=0;strokeWidth=1;" parent="3QzUX1BSIkMpHnEPLkSG-1" vertex="1">
          <mxGeometry x="44" y="122" width="10" height="48" as="geometry" />
        </mxCell>
        <mxCell id="3QzUX1BSIkMpHnEPLkSG-12" value="selectMenu()" style="edgeStyle=orthogonalEdgeStyle;html=1;align=left;spacingLeft=2;endArrow=block;rounded=0;entryX=1;entryY=0;" edge="1" parent="3QzUX1BSIkMpHnEPLkSG-1">
          <mxGeometry relative="1" as="geometry">
            <mxPoint x="50" y="195" as="sourcePoint" />
            <Array as="points">
              <mxPoint x="80" y="195" />
            </Array>
            <mxPoint x="55" y="215" as="targetPoint" />
          </mxGeometry>
        </mxCell>
        <mxCell id="3QzUX1BSIkMpHnEPLkSG-16" value="buttonEnterPressed()" style="verticalAlign=bottom;endArrow=block;entryX=0.114;entryY=0.263;shadow=0;strokeWidth=1;entryDx=0;entryDy=0;entryPerimeter=0;" edge="1" parent="3QzUX1BSIkMpHnEPLkSG-1">
          <mxGeometry relative="1" as="geometry">
            <mxPoint x="-75" y="193.7899999999999" as="sourcePoint" />
            <mxPoint x="46.13999999999987" y="193.7899999999999" as="targetPoint" />
          </mxGeometry>
        </mxCell>
        <mxCell id="3QzUX1BSIkMpHnEPLkSG-18" value="" style="points=[];perimeter=orthogonalPerimeter;rounded=0;shadow=0;strokeWidth=1;" vertex="1" parent="3QzUX1BSIkMpHnEPLkSG-1">
          <mxGeometry x="44" y="195" width="10" height="145" as="geometry" />
        </mxCell>
        <mxCell id="3QzUX1BSIkMpHnEPLkSG-20" value="goDownMenu()" style="edgeStyle=orthogonalEdgeStyle;html=1;align=left;spacingLeft=2;endArrow=block;rounded=0;entryX=1;entryY=0;" edge="1" parent="3QzUX1BSIkMpHnEPLkSG-1">
          <mxGeometry relative="1" as="geometry">
            <mxPoint x="50" y="122" as="sourcePoint" />
            <Array as="points">
              <mxPoint x="80" y="122" />
            </Array>
            <mxPoint x="55" y="142" as="targetPoint" />
          </mxGeometry>
        </mxCell>
        <mxCell id="3QzUX1BSIkMpHnEPLkSG-17" value="return()" style="verticalAlign=bottom;endArrow=open;dashed=1;endSize=8;shadow=0;strokeWidth=1;" edge="1" parent="3QzUX1BSIkMpHnEPLkSG-1" source="3QzUX1BSIkMpHnEPLkSG-18">
          <mxGeometry relative="1" as="geometry">
            <mxPoint x="-75" y="340.4" as="targetPoint" />
            <mxPoint x="55" y="340" as="sourcePoint" />
            <Array as="points">
              <mxPoint x="10" y="340" />
            </Array>
          </mxGeometry>
        </mxCell>
        <mxCell id="3QzUX1BSIkMpHnEPLkSG-3" value="Particle Sensor&#xa;Manager" style="shape=umlLifeline;perimeter=lifelinePerimeter;container=1;collapsible=0;recursiveResize=0;rounded=0;shadow=0;strokeWidth=1;" vertex="1" parent="1">
          <mxGeometry x="520" y="80" width="110" height="540" as="geometry" />
        </mxCell>
        <mxCell id="3QzUX1BSIkMpHnEPLkSG-4" value="" style="points=[];perimeter=orthogonalPerimeter;rounded=0;shadow=0;strokeWidth=1;" vertex="1" parent="3QzUX1BSIkMpHnEPLkSG-3">
          <mxGeometry x="50" y="90" width="10" height="420" as="geometry" />
        </mxCell>
        <mxCell id="3QzUX1BSIkMpHnEPLkSG-25" value="" style="html=1;points=[];perimeter=orthogonalPerimeter;" vertex="1" parent="3QzUX1BSIkMpHnEPLkSG-3">
          <mxGeometry x="44" y="230" width="10" height="20" as="geometry" />
        </mxCell>
        <mxCell id="3QzUX1BSIkMpHnEPLkSG-5" value="GPS Manager" style="shape=umlLifeline;perimeter=lifelinePerimeter;container=1;collapsible=0;recursiveResize=0;rounded=0;shadow=0;strokeWidth=1;" vertex="1" parent="1">
          <mxGeometry x="650" y="80" width="110" height="540" as="geometry" />
        </mxCell>
        <mxCell id="3QzUX1BSIkMpHnEPLkSG-6" value="" style="points=[];perimeter=orthogonalPerimeter;rounded=0;shadow=0;strokeWidth=1;" vertex="1" parent="3QzUX1BSIkMpHnEPLkSG-5">
          <mxGeometry x="50" y="110" width="10" height="400" as="geometry" />
        </mxCell>
        <mxCell id="3QzUX1BSIkMpHnEPLkSG-30" value="" style="html=1;points=[];perimeter=orthogonalPerimeter;" vertex="1" parent="3QzUX1BSIkMpHnEPLkSG-5">
          <mxGeometry x="46" y="260" width="10" height="20" as="geometry" />
        </mxCell>
        <mxCell id="3QzUX1BSIkMpHnEPLkSG-7" value="Initiate()" style="verticalAlign=bottom;endArrow=block;shadow=0;strokeWidth=1;" edge="1" parent="1" source="3nuBFxr9cyL0pnOWT2aG-2">
          <mxGeometry x="0.5472" relative="1" as="geometry">
            <mxPoint x="175" y="160" as="sourcePoint" />
            <mxPoint x="440" y="160" as="targetPoint" />
            <mxPoint as="offset" />
          </mxGeometry>
        </mxCell>
        <mxCell id="3QzUX1BSIkMpHnEPLkSG-8" value="Initiate()" style="verticalAlign=bottom;endArrow=block;shadow=0;strokeWidth=1;startArrow=none;" edge="1" parent="1" source="3nuBFxr9cyL0pnOWT2aG-2" target="3QzUX1BSIkMpHnEPLkSG-3">
          <mxGeometry x="0.6477" relative="1" as="geometry">
            <mxPoint x="180" y="170" as="sourcePoint" />
            <mxPoint x="570" y="171" as="targetPoint" />
            <Array as="points">
              <mxPoint x="180" y="170" />
              <mxPoint x="530" y="170" />
            </Array>
            <mxPoint as="offset" />
          </mxGeometry>
        </mxCell>
        <mxCell id="3QzUX1BSIkMpHnEPLkSG-9" value="Initiate()" style="verticalAlign=bottom;endArrow=block;shadow=0;strokeWidth=1;" edge="1" parent="1" source="3nuBFxr9cyL0pnOWT2aG-2" target="3QzUX1BSIkMpHnEPLkSG-5">
          <mxGeometry x="0.7541" relative="1" as="geometry">
            <mxPoint x="320.5999999999999" y="181.19999999999993" as="sourcePoint" />
            <mxPoint x="579.5" y="181.19999999999993" as="targetPoint" />
            <mxPoint as="offset" />
            <Array as="points">
              <mxPoint x="490" y="190" />
            </Array>
          </mxGeometry>
        </mxCell>
        <mxCell id="3nuBFxr9cyL0pnOWT2aG-6" value="" style="points=[];perimeter=orthogonalPerimeter;rounded=0;shadow=0;strokeWidth=1;" parent="1" vertex="1">
          <mxGeometry x="305" y="150" width="10" height="440" as="geometry" />
        </mxCell>
        <mxCell id="3QzUX1BSIkMpHnEPLkSG-10" value="" style="verticalAlign=bottom;endArrow=none;shadow=0;strokeWidth=1;" edge="1" parent="1" target="3nuBFxr9cyL0pnOWT2aG-6">
          <mxGeometry x="0.4104" y="1" relative="1" as="geometry">
            <mxPoint x="310" y="150" as="sourcePoint" />
            <mxPoint x="569.5" y="171.19999999999993" as="targetPoint" />
            <mxPoint as="offset" />
          </mxGeometry>
        </mxCell>
        <mxCell id="3nuBFxr9cyL0pnOWT2aG-9" value="buttonDownPressed()" style="verticalAlign=bottom;endArrow=block;shadow=0;strokeWidth=1;" parent="1" source="3nuBFxr9cyL0pnOWT2aG-6" target="3QzUX1BSIkMpHnEPLkSG-2" edge="1">
          <mxGeometry relative="1" as="geometry">
            <mxPoint x="377.5" y="400" as="sourcePoint" />
            <Array as="points">
              <mxPoint x="400" y="210" />
            </Array>
          </mxGeometry>
        </mxCell>
        <mxCell id="3nuBFxr9cyL0pnOWT2aG-10" value="return()" style="verticalAlign=bottom;endArrow=open;dashed=1;endSize=8;exitX=1;exitY=0.95;shadow=0;strokeWidth=1;" parent="1" source="3nuBFxr9cyL0pnOWT2aG-4" edge="1">
          <mxGeometry relative="1" as="geometry">
            <mxPoint x="310" y="248" as="targetPoint" />
          </mxGeometry>
        </mxCell>
        <mxCell id="3QzUX1BSIkMpHnEPLkSG-27" value="return()" style="html=1;verticalAlign=bottom;endArrow=open;dashed=1;endSize=8;rounded=0;" edge="1" source="3QzUX1BSIkMpHnEPLkSG-25" parent="1" target="3QzUX1BSIkMpHnEPLkSG-18">
          <mxGeometry relative="1" as="geometry">
            <mxPoint x="490" y="386" as="targetPoint" />
            <Array as="points">
              <mxPoint x="510" y="330" />
            </Array>
          </mxGeometry>
        </mxCell>
        <mxCell id="3QzUX1BSIkMpHnEPLkSG-26" value="executeAction()" style="html=1;verticalAlign=bottom;endArrow=block;entryX=0;entryY=0;rounded=0;" edge="1" target="3QzUX1BSIkMpHnEPLkSG-25" parent="1" source="3QzUX1BSIkMpHnEPLkSG-18">
          <mxGeometry x="0.3333" relative="1" as="geometry">
            <mxPoint x="490" y="310" as="sourcePoint" />
            <mxPoint as="offset" />
          </mxGeometry>
        </mxCell>
        <mxCell id="3QzUX1BSIkMpHnEPLkSG-28" value="return()" style="html=1;verticalAlign=bottom;endArrow=open;dashed=1;endSize=8;rounded=0;exitX=0.045;exitY=0.91;exitDx=0;exitDy=0;exitPerimeter=0;" edge="1" parent="1" source="3QzUX1BSIkMpHnEPLkSG-30" target="3QzUX1BSIkMpHnEPLkSG-18">
          <mxGeometry x="-0.5653" y="1" relative="1" as="geometry">
            <mxPoint x="430.00000000000006" y="360.605" as="targetPoint" />
            <mxPoint x="545.59" y="360.9" as="sourcePoint" />
            <Array as="points" />
            <mxPoint as="offset" />
          </mxGeometry>
        </mxCell>
        <mxCell id="3QzUX1BSIkMpHnEPLkSG-29" value="executeAction()" style="html=1;verticalAlign=bottom;endArrow=block;entryX=0.183;entryY=0.048;rounded=0;exitX=0.89;exitY=0.449;exitDx=0;exitDy=0;exitPerimeter=0;entryDx=0;entryDy=0;entryPerimeter=0;" edge="1" parent="1" source="3QzUX1BSIkMpHnEPLkSG-18" target="3QzUX1BSIkMpHnEPLkSG-30">
          <mxGeometry x="0.5593" relative="1" as="geometry">
            <mxPoint x="432.76000000000005" y="340" as="sourcePoint" />
            <mxPoint x="545.59" y="340.9" as="targetPoint" />
            <mxPoint as="offset" />
          </mxGeometry>
        </mxCell>
        <mxCell id="3QzUX1BSIkMpHnEPLkSG-32" value="executeAction()" style="html=1;verticalAlign=bottom;endArrow=block;entryX=1;entryY=0;rounded=0;exitX=0.076;exitY=0.648;exitDx=0;exitDy=0;exitPerimeter=0;" edge="1" target="3QzUX1BSIkMpHnEPLkSG-31" parent="1" source="3QzUX1BSIkMpHnEPLkSG-18">
          <mxGeometry x="0.432" relative="1" as="geometry">
            <mxPoint x="270" y="350" as="sourcePoint" />
            <mxPoint as="offset" />
          </mxGeometry>
        </mxCell>
        <mxCell id="3QzUX1BSIkMpHnEPLkSG-33" value="return()" style="html=1;verticalAlign=bottom;endArrow=open;dashed=1;endSize=8;exitX=1;exitY=0.95;rounded=0;entryX=-0.076;entryY=0.781;entryDx=0;entryDy=0;entryPerimeter=0;" edge="1" source="3QzUX1BSIkMpHnEPLkSG-31" parent="1" target="3QzUX1BSIkMpHnEPLkSG-18">
          <mxGeometry x="-0.5185" y="1" relative="1" as="geometry">
            <mxPoint x="270" y="407" as="targetPoint" />
            <mxPoint as="offset" />
          </mxGeometry>
        </mxCell>
        <mxCell id="3QzUX1BSIkMpHnEPLkSG-35" value="hasSample()" style="html=1;verticalAlign=bottom;endArrow=block;entryX=1;entryY=0;rounded=0;exitX=-0.076;exitY=0.645;exitDx=0;exitDy=0;exitPerimeter=0;" edge="1" target="3QzUX1BSIkMpHnEPLkSG-34" parent="1" source="3QzUX1BSIkMpHnEPLkSG-4">
          <mxGeometry x="-0.6916" y="1" relative="1" as="geometry">
            <mxPoint x="542.8599999999999" y="429.99999999999994" as="sourcePoint" />
            <mxPoint as="offset" />
          </mxGeometry>
        </mxCell>
        <mxCell id="3QzUX1BSIkMpHnEPLkSG-36" value="return()" style="html=1;verticalAlign=bottom;endArrow=open;dashed=1;endSize=8;exitX=1;exitY=0.95;rounded=0;" edge="1" source="3QzUX1BSIkMpHnEPLkSG-34" parent="1" target="3QzUX1BSIkMpHnEPLkSG-4">
          <mxGeometry x="0.6883" relative="1" as="geometry">
            <mxPoint x="245" y="498.54" as="targetPoint" />
            <mxPoint as="offset" />
          </mxGeometry>
        </mxCell>
        <mxCell id="3QzUX1BSIkMpHnEPLkSG-37" value="hasSample()" style="html=1;verticalAlign=bottom;endArrow=block;entryX=0.941;entryY=0.114;rounded=0;entryDx=0;entryDy=0;entryPerimeter=0;" edge="1" parent="1">
          <mxGeometry x="-0.806" relative="1" as="geometry">
            <mxPoint x="700" y="479.10444000000007" as="sourcePoint" />
            <mxPoint x="184.41000000000008" y="479.10444000000007" as="targetPoint" />
            <mxPoint as="offset" />
          </mxGeometry>
        </mxCell>
        <mxCell id="3QzUX1BSIkMpHnEPLkSG-38" value="return()" style="html=1;verticalAlign=bottom;endArrow=open;dashed=1;endSize=8;exitX=0.803;exitY=0.973;rounded=0;entryX=0;entryY=0.77;entryDx=0;entryDy=0;entryPerimeter=0;exitDx=0;exitDy=0;exitPerimeter=0;" edge="1" parent="1" source="3QzUX1BSIkMpHnEPLkSG-39" target="3QzUX1BSIkMpHnEPLkSG-6">
          <mxGeometry x="0.8066" relative="1" as="geometry">
            <mxPoint x="645" y="498.17700000000013" as="targetPoint" />
            <mxPoint x="260" y="498.17700000000013" as="sourcePoint" />
            <mxPoint as="offset" />
          </mxGeometry>
        </mxCell>
      </root>
    </mxGraphModel>
  </diagram>
</mxfile>
